<?xml version="1.0" encoding="utf-8"?>
<!-- Generator: Adobe Illustrator 22.0.1, SVG Export Plug-In . SVG Version: 6.00 Build 0)  -->
<svg version="1.1" id="Layer_1" xmlns="http://www.w3.org/2000/svg" xmlns:xlink="http://www.w3.org/1999/xlink" x="0px" y="0px"
	 viewBox="0 0 291.1 159.2" style="enable-background:new 0 0 291.1 159.2;" xml:space="preserve">
<style type="text/css">
	.st0{opacity:0.85;fill:#414141;}
	.st1{fill:#231F20;}
</style>
<g>
	<path class="st0" d="M192.6,74.1c19.8,0,36-16.4,37-37h-74C156.6,57.7,172.8,74.1,192.6,74.1z"/>
	<path class="st1" d="M192.6,0c-19.8,0-36,16.4-37,37h74C228.6,16.4,212.5,0,192.6,0z"/>
	<polygon class="st0" points="113,0 113,74.1 151.9,74.1 151.9,37 151.9,0 	"/>
	<polygon class="st0" points="74.1,122.1 0,122.1 0,159.1 37,159.1 74.1,159.1 	"/>
	<path class="st0" d="M207.2,122.1h-52v37h35.3h16.7c10.2,0,18.5-8.3,18.5-18.5v0C225.7,130.4,217.4,122.1,207.2,122.1z"/>
	<path class="st1" d="M203.7,85.4h-48.5v36.7h31.9h16.6c10.1,0,18.4-8.2,18.4-18.4v0C222.1,93.6,213.8,85.4,203.7,85.4z"/>
	<path class="st0" d="M272.6,122.1h-16.8c-14.5,14.5-20.9,22.6-35.4,37.1v0h35.4h16.8c10.3,0,18.6-8.3,18.6-18.6v0
		C291.1,130.4,282.8,122.1,272.6,122.1z"/>
	<path class="st1" d="M244.4,122.1h11.3c14.3-14.3,20.6-22.4,35-36.7v0h-35h-11.3c-10.1,0-18.4,8.2-18.4,18.4v0
		C226.1,113.9,234.3,122.1,244.4,122.1z"/>
	<polygon class="st0" points="114.8,85.1 109.2,85.1 77.8,159.1 114.8,159.1 151.9,159.1 120.5,85.1 	"/>
	<polygon class="st1" points="108.6,85.1 93.5,122.1 136.2,122.1 120.5,85.1 	"/>
	<path class="st1" d="M77.8,0v37c0,19.8,15.6,36,35.2,37V0H77.8z"/>
	<path class="st1" d="M0,85.1v37c0,19.8,15.6,36,35.2,37v-74H0z"/>
	<path class="st0" d="M0,74.1h37c19.8,0,36-16.4,37-37H0V74.1z"/>
	<path class="st1" d="M37,0H0v37h74C73.1,16.4,56.9,0,37,0z"/>
</g>
</svg>
